Coordinates
version=1
nRows=13
nColumns=36
inDegrees=yes

Units are S.I. units (second, meters, Newtons, ...)
If the header above contains a line with 'inDegrees', this indicates whether rotational values are in degrees (yes) or radians (no).

endheader
time	pelvis_tilt	pelvis_list	pelvis_rotation	pelvis_tx	pelvis_ty	pelvis_tz	hip_flexion_r	hip_adduction_r	hip_rotation_r	knee_angle_r	knee_angle_r_beta	ankle_angle_r	subtalar_angle_r	mtp_angle_r	hip_flexion_l	hip_adduction_l	hip_rotation_l	knee_angle_l	knee_angle_l_beta	ankle_angle_l	subtalar_angle_l	mtp_angle_l	lumbar_extension	lumbar_bending	lumbar_rotation	arm_flex_r	arm_add_r	arm_rot_r	elbow_flex_r	pro_sup_r	arm_flex_l	arm_add_l	arm_rot_l	elbow_flex_l	pro_sup_l
      4.30000000	     -5.18117287	     -0.14950764	     -1.36779713	      0.62629650	      0.89120746	      0.03926792	     13.12703267	     -6.90549857	    -11.91704802	     17.61149410	      0.30737856	      8.74709061	    -15.21763162	     -7.49999987	     15.76905000	     -7.86284479	    -11.51190642	     18.59071306	      0.32446915	      9.70089218	     -1.16482445	     -7.49999987	    -11.24115877	      0.13993911	      1.93298628	      0.89303977	     -6.31118090	     -4.32351691	     35.78953152	     87.31259366	     -5.25868599	     -5.09234644	     -2.78240212	     27.85314515	     82.85345829
      4.31666670	     -5.11915427	     -0.17694359	     -1.62807129	      0.62650430	      0.89132609	      0.03909704	     12.67180177	     -6.74295469	    -12.07171980	     17.02455335	      0.29713451	      8.44779487	    -14.97873154	     -7.49999987	     15.37434829	     -7.83018286	    -11.17582786	     18.17731589	      0.31725401	      9.66290628	     -1.78351002	     -7.49999987	    -10.63724191	      0.15401963	      1.77126748	      0.07831269	     -6.26434392	     -4.23270559	     35.79169584	     86.75257650	     -5.71538874	     -4.92623380	     -2.90772776	     27.40014063	     82.33495870
      4.33333330	     -5.19180112	     -0.18105320	     -1.80361956	      0.62611893	      0.89188551	      0.03902447	     12.55946538	     -6.71075278	    -12.30830130	     16.73648220	      0.29210672	      8.06897364	    -14.72030603	     -7.49999987	     15.32648812	     -7.78720669	    -10.90069041	     17.95267149	      0.31333323	      9.56824527	     -2.09834958	     -7.49999987	     -9.95323733	      0.18920035	      1.58274111	     -0.65573462	     -6.28450040	     -3.89493543	     35.63313128	     85.44372799	     -5.79752603	     -4.76978645	     -2.88660506	     26.60704388	     81.30481541
      4.35000000	     -5.02987419	     -0.21923608	     -1.97978321	      0.62936272	      0.89077149	      0.04189699	     12.35390652	     -6.61256971	    -12.28878820	     16.81836671	      0.29353587	      7.90961265	    -14.63650444	     -7.49999987	     15.06213443	     -7.92676853	    -10.82377251	     18.01215252	      0.31437137	      9.48551843	     -2.13931284	     -7.49999987	     -9.65464312	      0.17356928	      1.35862216	     -1.30254513	     -6.09414831	     -3.82612637	     35.48075904	     85.45864913	     -5.97355306	     -4.78966313	     -2.88595382	     26.53991115	     81.32176422
      4.36666670	     -5.12635152	     -0.33870620	     -1.93220134	      0.62847852	      0.88391889	      0.04108008	     12.41158217	     -6.45100611	    -12.41012826	     16.84550916	      0.29400960	      7.75495449	    -14.96169603	     -7.49999987	     15.40434476	     -8.02329566	    -10.33429381	     18.32933849	      0.31990731	      9.02396865	     -3.30577922	     -7.49999987	     -9.04822422	      0.39126147	      1.13149385	     -2.05940492	     -6.16316008	     -3.12900925	     35.11815900	     83.75391254	     -5.68440020	     -4.79400743	     -2.53036215	     25.62960407	     80.23320505
      4.38333330	     -4.97908464	     -0.40052939	     -1.88344759	      0.63204466	      0.88557405	      0.04421684	     12.09366462	     -6.31225426	    -12.47058141	     16.83323301	      0.29379534	      7.98231163	    -15.11809597	     -7.49999987	     15.39964831	     -8.24228050	    -10.38401925	     18.67082374	      0.32586735	      8.99281057	     -3.53377543	     -7.49999987	     -8.79817530	      0.38140851	      0.85056921	     -2.86164158	     -5.97866835	     -3.07808827	     34.81898971	     83.80127063	     -5.70284497	     -4.94631250	     -2.54525078	     25.60578917	     80.30359406
      4.40000000	     -5.00227508	     -0.60985703	     -1.73575420	      0.63166118	      0.88866907	      0.04481304	     11.91532435	     -5.99036404	    -12.43993907	     16.68374047	      0.29118620	      7.78831421	    -15.46948899	     -7.49999987	     15.65396257	     -8.55457087	    -10.11251394	     19.06286467	      0.33270975	      8.72300950	     -4.10522077	     -7.49999987	     -8.52836582	      0.58109506	      0.61215488	     -3.57452268	     -5.86932770	     -3.14551111	     34.57333037	     82.56039119	     -5.46510035	     -5.03260887	     -2.49033529	     25.52034652	     79.33173395
      4.41666670	     -5.18737831	     -0.74188986	     -1.62460194	      0.63211553	      0.88858847	      0.04478974	     11.93336247	     -5.75888426	    -12.51040937	     16.50001915	      0.28797966	      8.07725964	    -15.30896001	     -7.49999987	     16.07052501	     -8.78672501	     -9.96515359	     19.39857963	      0.33856908	      8.65877072	     -4.27520534	     -7.49999987	     -8.01267493	      0.63389121	      0.48326818	     -4.04757244	     -5.72471484	     -3.50217289	     33.84242802	     85.58753047	     -5.07473079	     -5.24058840	     -2.22609190	     24.98000421	     84.09392245
      4.43333330	     -5.23195341	     -0.80733328	     -1.52745635	      0.63517467	      0.88935807	      0.04730414	     11.61389852	     -5.51025473	    -12.51619762	     16.14674937	      0.28181394	      8.02191075	    -15.27498589	     -7.49999987	     16.05155094	     -8.99397677	    -10.06265072	     19.32739657	      0.33732671	      8.41973676	     -4.09566228	     -7.49999987	     -7.75804836	      0.50215100	      0.12925120	     -4.28952118	     -5.55270031	     -3.05907795	     33.22469343	     84.89508655	     -5.15322487	     -5.40067146	     -2.67739155	     25.26066897	     83.93041775
      4.45000000	     -5.20649171	     -0.78405905	     -1.39971617	      0.63939773	      0.89323153	      0.04580115	     11.11370604	     -5.46530379	    -12.65654618	     15.66735114	      0.27344686	      7.88216534	    -15.15684872	     -7.49999987	     15.73197887	     -8.99761487	    -10.15117793	     19.05241330	      0.33252734	      8.15852350	     -3.85416449	     -7.49999987	     -7.40150819	      0.33915657	      0.07005252	     -4.78280066	     -5.33045581	     -3.14202444	     32.97458887	     84.90866050	     -5.30812376	     -5.66065814	     -2.81225616	     25.34206387	     83.96248898
      4.46666670	     -5.04203201	     -0.72793887	     -1.40441744	      0.63578724	      0.89452770	      0.04319872	     10.67916019	     -5.51083162	    -12.72261495	     15.21368941	      0.26552897	      7.64524839	    -14.96243245	     -7.49999987	     15.30473440	     -8.87886546	    -10.24670256	     18.72143675	      0.32675071	      8.06955306	     -3.55240647	     -7.49999987	     -7.37460579	      0.11787234	      0.05315272	     -4.90565484	     -5.21110147	     -3.27136433	     32.71827069	     84.92101805	     -5.40671538	     -5.86013644	     -2.92204630	     25.66428486	     84.02047433
      4.48333330	     -4.64437353	     -0.74841731	     -1.39144839	      0.63546337	      0.89436631	      0.04813487	     10.09738095	     -5.35961618	    -12.68085665	     14.81877618	      0.25863644	      7.55219772	    -14.94266405	     -7.49999987	     14.57759658	     -8.91366531	    -10.29375638	     18.16047747	      0.31696013	      8.07049346	     -2.88130681	     -7.49999987	     -7.79810798	     -0.05648989	      0.04526088	     -4.71854943	     -4.96010724	     -3.47674279	     32.38002770	     84.95321359	     -5.78749475	     -6.29392569	     -3.17619799	     26.47682051	     84.14066286
      4.50000000	     -4.32168614	     -0.75314338	     -1.24964820	      0.63824946	      0.89462920	      0.05076283	      9.47104510	     -5.18627748	    -12.68616887	     14.40708089	      0.25145100	      7.36782923	    -15.04459110	     -7.49999987	     13.92523542	     -8.98246913	    -10.41606463	     17.64076324	      0.30788940	      8.11856043	     -2.21922057	     -7.49999987	     -7.94028404	     -0.30477974	      0.00737706	     -4.85010106	     -4.72013472	     -3.49458884	     32.33824038	     83.68027225	     -6.27380034	     -6.89396843	     -3.58238188	     28.29643198	     83.01391087
